<?xml version="1.0" encoding="utf-8"?>
<?xml-stylesheet type="text/xsl" href="rss1.xsl"?>
<rss version="2.0" xmlns:atom="http://www.w3.org/2005/Atom" xmlns:content="http://purl.org/rss/1.0/modules/content/" xmlns:dc="http://purl.org/dc/elements/1.1/" xmlns:media="http://search.yahoo.com/mrss/">
<channel>
 <title>Getty</title>
 <link>http://www.gettyimg.com/</link>
 <atom:link href="http://www.gettyimg.com/" rel="self" type="application/rss+xml" />

 
                <item>
                <title><![CDATA[【Requests】[REQ VID] - TMC Spice Girls 30 Ans... Documentary]]></title>
                <link><![CDATA[https://sharemania.us/threads/tmc-spice-girls-30-ans-documentary.248892/]]></link>
                <description><![CDATA[<article>
<blockquote class="messageText SelectQuoteContainer ugc baseHtml">
Hello everyone, <br>
<br>
Can someone record / download that Spice Girls documentary, please ?<br>
It's available online on this site :<br>
<a href="https://www.tf1.fr/tmc/spice-girls-30-ans-de-secrets-de-rumeurs-et-de-scandales/videos" target="_blank" class="externalLink" rel="nofollow">Spice Girls : 30 ans de secrets, de rumeurs et de scandales ...TF11 heure, 33 minutes et 58 secondesIl y a 3 jours</a><br>
<br>
Thank you very much in advance <img src="styles/default/xenforo/smilies/big_smile-48.png" class="mceSmilie" alt=":)" title="Smile    :)">
<div class="messageTextEndMarker">&nbsp;</div>
</blockquote>
</article>]]></description>
                <author><![CDATA[FloFlo]]></author>
                </item>

                
                <item>
                <title><![CDATA[【UPSCALED】WENDY - Wish You Hell [RTX HDR]]]></title>
                <link><![CDATA[https://sharemania.us/threads/wendy-wish-you-hell-rtx-hdr.248890/]]></link>
                <description><![CDATA[<article>
<blockquote class="messageText SelectQuoteContainer ugc baseHtml">
<span style="font-size: 18px">My <i><span style="color: #ff0080">IDOL</span></i>, our angel-vocal..... <b><i><span style="color: #00ffff">WENDYYYYYY</span></i></b><br>
</span><br>
<div class="bbCodeBlock bbCodeVfcHH HiddenContent">
<div class="attribution type">Hidden Content:</div>
<blockquote>You must either reply or click 'Like' to see the hidden information contained here.</blockquote>
</div>Fileinfo:<br>
<div class="bbCodeBlock bbCodeVfcHH HiddenContent">
<div class="attribution type">Hidden Content:</div>
<blockquote>You must either reply or click 'Like' to see the hidden information contained here.</blockquote>
</div>
<div class="messageTextEndMarker">&nbsp;</div>
</blockquote>
</article>]]></description>
                <author><![CDATA[ch3v4li3r]]></author>
                </item>

                
                <item>
                <title><![CDATA[【Music Videos】Pharrell Williams - Happy SD (X-Mix) (Intro Clean) (R&amp;B, Hip-Hop) 160]]></title>
                <link><![CDATA[https://sharemania.us/threads/pharrell-williams-happy-sd-x-mix-intro-clean-r-b-hip-hop-160.248891/]]></link>
                <description><![CDATA[<article>
<blockquote class="messageText SelectQuoteContainer ugc baseHtml">
<img src="https://i.imgur.com/WBSWfvQ.jpeg" class="bbCodeImage LbImage" alt="[​IMG]" data-url="https://i.imgur.com/WBSWfvQ.jpeg" style=""> <br>
<b>Pharrell Williams - Happy SD (X-Mix) (Intro Clean) (R&amp;B, Hip-Hop) 160</b><br>
<b>
<div class="ToggleTriggerAnchor bbCodeSpoilerContainer">
<button type="button" class="button bbCodeSpoilerButton ToggleTrigger Tooltip JsOnly" data-target="> .SpoilerTarget"><span>Spoiler: <span class="SpoilerTitle">Media Info</span></span></button>
<div class="SpoilerTarget bbCodeSpoilerText">General<br>
Complete name : E:\Downloads\Music Videos\Pharrell Williams - Happy (X-Mix) (Intro Clean) (R&amp;B, Hip-Hop) 160.mp4<br>
Format : MPEG-4<br>
Format profile : Base Media<br>
Codec ID : isom (isom/iso2/avc1/mp41)<br>
File size : 98.9 MiB<br>
Duration : 3 min 37 s<br>
Overall bit rate mode : Variable<br>
Overall bit rate : 3 807 kb/s<br>
Movie name : Happy (X-Mix) (Intro Clean) (R&amp;B, Hip-Hop) 160<br>
Performer : Pharrell Williams<br>
Genre : R&amp;B, Hip-Hop<br>
Recorded date : 2013<br>
Writing application : Lavf58.76.100<br>
Comment : sharing.wtf<br>
<br>
Video<br>
ID : 1<br>
Format : AVC<br>
Format/Info : Advanced Video Codec<br>
Format profile : Main@L3<br>
Format settings, CABAC : Yes<br>
Format settings, RefFrames : 3 frames<br>
Codec ID : avc1<br>
Codec ID/Info : Advanced Video Coding<br>
Duration : 3 min 37 s<br>
Source duration : 3 min 37 s<br>
Bit rate mode : Variable<br>
Bit rate : 3 481 kb/s<br>
Maximum bit rate : 5 000 kb/s<br>
Width : 640 pixels<br>
Height : 360 pixels<br>
Display aspect ratio : 16:9<br>
Frame rate mode : Constant<br>
Frame rate : 23.976 (24000/1001) FPS<br>
Original frame rate : 23.976 (23976/1000) FPS<br>
Standard : NTSC<br>
Color space : YUV<br>
Chroma subsampling : 4:2:0<br>
Bit depth : 8 bits<br>
Scan type : Progressive<br>
Bits/(Pixel*Frame) : 0.630<br>
Stream size : 90.4 MiB (91%)<br>
Source stream size : 90.4 MiB (91%)<br>
Language : English<br>
Color range : Limited<br>
mdhd_Duration : 217801<br>
<br>
Audio<br>
ID : 2<br>
Format : AAC<br>
Format/Info : Advanced Audio Codec<br>
Format profile : LC<br>
Codec ID : 40<br>
Duration : 3 min 37 s<br>
Bit rate mode : Constant<br>
Bit rate : 320 kb/s<br>
Channel(s) : 2 channels<br>
Channel positions : Front: L R<br>
Sampling rate : 44.1 kHz<br>
Frame rate : 43.066 FPS (1024 SPF)<br>
Compression mode : Lossy<br>
Stream size : 8.31 MiB (8%)<br>
Language : English<br>
Default : Yes<br>
Alternate group : 1<br>
<b><br>
</b></div>
</div><br>
<br>
<b>[/URL]
<div class="bbCodeBlock bbCodeVfcHH HiddenContent">
<div class="attribution type">Hidden Content:</div>
<blockquote>You must reply before you can see the hidden data contained here.</blockquote>
</div></b><br>
<br>
</b>
<div class="messageTextEndMarker">&nbsp;</div>
</blockquote>
</article>]]></description>
                <author><![CDATA[gamerfronts]]></author>
                </item>

                </channel></rss>